<svg xmlns="http://www.w3.org/2000/svg" viewBox="0 -0.5 64 36" shape-rendering="crispEdges">
<metadata>Made with Pixels to Svg https://codepen.io/shshaw/pen/XbxvNj</metadata>
<path stroke="#efe4b0" d="M35 1h4M33 2h8M31 3h12M29 4h16M27 5h20M25 6h24M24 7h27M23 8h30M25 9h30M27 10h30M29 11h30M31 12h30M33 13h26M35 14h22M37 15h16M39 16h12M41 17h8M43 18h4M44 19h2M45 20h1" />
<path stroke="#e2cf8b" d="M17 7h4M15 8h2M19 8h4M14 9h2M17 9h3M22 9h3M13 10h2M16 10h2M20 10h2M24 10h3M12 11h2M15 11h2M18 11h2M22 11h2M26 11h3M11 12h5M17 12h2M20 12h2M24 12h2M28 12h3M10 13h5M16 13h2M19 13h2M22 13h2M26 13h2M30 13h3M9 14h5M15 14h2M18 14h2M21 14h2M24 14h2M28 14h2M32 14h3M7 15h6M14 15h2M17 15h2M20 15h2M23 15h2M26 15h2M30 15h2M34 15h3M53 15h2M5 16h7M13 16h2M16 16h2M19 16h2M22 16h2M25 16h2M28 16h2M32 16h2M36 16h3M51 16h1M3 17h8M12 17h2M15 17h2M18 17h2M21 17h2M24 17h2M27 17h2M30 17h2M34 17h2M38 17h3M49 17h1M5 18h4M11 18h2M14 18h2M17 18h2M20 18h2M23 18h2M26 18h2M29 18h2M32 18h2M36 18h7M47 18h1M9 19h2M13 19h2M16 19h2M19 19h2M22 19h2M25 19h2M28 19h2M31 19h2M34 19h5M43 19h1M46 19h1M11 20h2M15 20h2M18 20h2M21 20h2M24 20h2M27 20h2M30 20h2M33 20h4M13 21h2M17 21h2M20 21h2M23 21h2M26 21h2M29 21h2M32 21h4M15 22h2M19 22h2M22 22h2M25 22h2M28 22h2M31 22h4M17 23h2M21 23h2M24 23h2M27 23h2M30 23h4M19 24h2M23 24h2M26 24h2M29 24h4M21 25h2M25 25h2M28 25h4M23 26h2M27 26h4M25 27h4M25 28h2" />
<path stroke="#d6ba67" d="M17 8h2M16 9h1M20 9h2M15 10h1M18 10h2M22 10h2M14 11h1M17 11h1M20 11h2M24 11h2M16 12h1M19 12h1M22 12h2M26 12h2M15 13h1M18 13h1M21 13h1M24 13h2M28 13h2M59 13h2M14 14h1M17 14h1M20 14h1M23 14h1M26 14h2M30 14h2M57 14h4M13 15h1M16 15h1M19 15h1M22 15h1M25 15h1M28 15h2M32 15h2M55 15h6M12 16h1M15 16h1M18 16h1M21 16h1M24 16h1M27 16h1M30 16h2M34 16h2M53 16h6M11 17h1M14 17h1M17 17h1M20 17h1M23 17h1M26 17h1M29 17h1M32 17h2M36 17h2M51 17h6M9 18h2M13 18h1M16 18h1M19 18h1M22 18h1M25 18h1M28 18h1M31 18h1M34 18h2M49 18h6M7 19h2M11 19h2M15 19h1M18 19h1M21 19h1M24 19h1M27 19h1M30 19h1M33 19h1M48 19h5M9 20h2M13 20h2M17 20h1M20 20h1M23 20h1M26 20h1M29 20h1M32 20h1M44 20h1M47 20h4M11 21h2M15 21h2M19 21h1M22 21h1M25 21h1M28 21h1M31 21h1M41 21h3M45 21h4M13 22h2M17 22h2M21 22h1M24 22h1M27 22h1M30 22h1M39 22h8M15 23h2M19 23h2M23 23h1M26 23h1M29 23h1M37 23h6M17 24h2M21 24h2M25 24h1M28 24h1M35 24h6M19 25h2M23 25h2M27 25h1M33 25h6M21 26h2M25 26h2M31 26h6M23 27h2M29 27h6M27 28h6M26 29h5M26 30h3M26 31h1" />
<path stroke="#750012" d="M61 14h1M61 15h2M59 16h2M57 17h2M55 18h2M2 19h1M53 19h2M1 20h2M51 20h2M3 21h2M49 21h2M5 22h2M47 22h2M7 23h2M43 23h5M9 24h2M41 24h2M44 24h1M48 24h1M11 25h2M39 25h2M43 25h1M13 26h2M37 26h2M43 26h2M15 27h2M35 27h2M17 28h2M33 28h2M19 29h2M31 29h2M21 30h2M29 30h2M23 31h2M27 31h2M25 32h2" />
<path stroke="#cfb55a" d="M52 16h1M50 17h1M3 18h2M48 18h1M3 19h4M47 19h1M3 20h6M46 20h1M5 21h6M7 22h6M9 23h6M11 24h6M13 25h6M15 26h6M17 27h6M19 28h6M21 29h5M23 30h3M25 31h1" />
<path stroke="#880015" d="M61 16h2M59 17h4M57 18h4M55 19h4M53 20h4M51 21h4M49 22h4M48 23h3M43 24h1M41 25h2M48 25h1M39 26h3M45 26h1M37 27h3M35 28h4M33 29h4M31 30h4M29 31h4M27 32h4M26 33h3M26 34h1" />
<path stroke="#81662e" d="M39 19h4M37 20h2M43 20h1M36 21h2M44 21h1M35 22h2M34 23h2M33 24h2M32 25h1" />
<path stroke="#9c8243" d="M39 20h4M38 21h3M37 22h2M36 23h1" />
<path stroke="#430c15" d="M1 21h2M1 22h4M3 23h4M5 24h4M45 24h3M7 25h4M44 25h3M9 26h4M11 27h4M13 28h4M15 29h4M17 30h4M19 31h4M21 32h4M23 33h3M25 34h1" />
<path stroke="#b33548" d="M47 25h1M46 26h1" />
<path stroke="rgba(36,36,36,0.5764705882352941)" d="M42 26h1M40 27h2M39 28h1M37 29h1M35 30h1" />
<path stroke="rgba(33,33,33,0.1803921568627451)" d="M42 27h2M40 28h2M38 29h1M36 30h1M33 31h1" />
</svg>