<?xml version="1.0" encoding="UTF-8" standalone="no"?>
<!-- Created with Inkscape (http://www.inkscape.org/) -->

<svg
   width="400mm"
   height="63.933044mm"
   viewBox="0 0 399.99999 63.933044"
   version="1.1"
   id="svg106110"
   inkscape:version="1.1.1 (3bf5ae0d25, 2021-09-20)"
   sodipodi:docname="divified_banner.svg"
   xmlns:inkscape="http://www.inkscape.org/namespaces/inkscape"
   xmlns:sodipodi="http://sodipodi.sourceforge.net/DTD/sodipodi-0.dtd"
   xmlns="http://www.w3.org/2000/svg"
   xmlns:svg="http://www.w3.org/2000/svg">
  <sodipodi:namedview
     id="namedview106112"
     pagecolor="#ffffff"
     bordercolor="#666666"
     borderopacity="1.0"
     inkscape:pageshadow="2"
     inkscape:pageopacity="0.0"
     inkscape:pagecheckerboard="0"
     inkscape:document-units="mm"
     showgrid="false"
     inkscape:zoom="0.53669881"
     inkscape:cx="566.4257"
     inkscape:cy="179.8029"
     inkscape:window-width="1920"
     inkscape:window-height="1011"
     inkscape:window-x="-8"
     inkscape:window-y="-8"
     inkscape:window-maximized="1"
     inkscape:current-layer="layer1"
     fit-margin-top="0"
     fit-margin-left="0"
     fit-margin-right="0"
     fit-margin-bottom="0" />
  <defs
     id="defs106107" />
  <g
     inkscape:label="Layer 1"
     inkscape:groupmode="layer"
     id="layer1"
     transform="translate(50.076103,-110.60738)">
    <g
       id="g69019"
       transform="translate(-234.12157,-1133.3076)"
       style="display:inline" />
    <g
       aria-label="██████╗ ██╗██╗   ██╗██╗███████╗██╗███████╗██████╗ ██╔══██╗██║██║   ██║██║██╔════╝██║██╔════╝██╔══██╗ ██║  ██║██║╚██╗ ██╔╝██║█████╗  ██║█████╗  ██║  ██║ ██║  ██║██║ ╚████╔╝ ██║██╔══╝  ██║██╔══╝  ██║  ██║ ██████╔╝██║  ╚██╔╝  ██║██║     ██║███████╗██████╔╝ ╚═════╝ ╚═╝   ╚═╝   ╚═╝╚═╝     ╚═╝╚══════╝╚═════╝ "
       id="text1816-40-0"
       style="font-size:10.5833px;line-height:0;font-family:'Courier New';-inkscape-font-specification:'Courier New';letter-spacing:0px;word-spacing:0px;display:inline;fill:#000000;fill-opacity:1;stroke:none;stroke-width:0.264583;stroke-opacity:1"
       transform="translate(-209.81884,-1220.2402)">
      <path
         id="path63073"
         style="line-height:1.07;fill:#000000;fill-opacity:1;stroke:none;stroke-width:0.999999;stroke-opacity:1"
         d="m 1127.5527,4808.043 v 45.3125 42.7988 42.8008 42.7988 42.8008 h 7.4414 v 25.125 h 16.5625 24.0039 24.004 24.0039 24.0039 24.0039 16.5625 v -27.6367 -15.1641 h 7.4414 16.5625 v -27.6367 -42.8008 -42.7988 -24.2852 h -16.5625 v -18.5156 h -7.4414 v -24.2832 h -16.5625 v -18.5156 h -24.0039 -24.0039 -24.0039 -24.004 -24.0039 z m 192.0313,0 v 45.3125 42.7988 42.8008 42.7988 42.8008 h 7.4414 v 25.125 h 16.5625 24.0039 16.5625 v -25.125 -2.5117 -42.8008 -42.8008 -42.7988 -42.8008 -24.2832 h -16.5625 v -18.5156 h -24.0039 z m 72.0117,0 v 45.3125 42.7988 h 7.4395 v 25.125 h 16.5625 v 17.6758 h 7.4414 v 25.123 h 16.5625 v 17.6758 h 7.4414 v 25.125 h 16.5625 v 17.6758 h 7.4414 v 25.125 h 16.5625 24.0039 16.5625 v -27.6367 -15.1641 h 7.4414 16.5625 v -27.6367 -15.1641 h 7.4414 16.5625 v -27.6367 -15.1621 h 7.4414 16.5625 v -27.6367 -42.8008 -24.2832 h -16.5625 v -18.5156 h -24.0039 -24.0039 v 45.3125 40.2871 h -24.0039 v 42.7988 h -24.0039 -7.4414 v -24.2832 h -16.5625 v -18.5156 h -7.4414 v -42.8008 -24.2832 h -16.5625 v -18.5156 h -24.0039 z m 216.0332,0 v 45.3125 42.7988 42.8008 42.7988 42.8008 h 7.4414 v 25.125 h 16.5625 24.0039 16.5625 v -27.6367 -42.8008 -42.8008 -42.7988 -42.8008 -24.2832 h -16.5625 v -18.5156 h -24.0039 z m 72.0117,0 v 45.3125 42.7988 42.8008 42.7988 42.8008 h 7.4414 v 25.125 h 16.5625 24.0039 16.5625 v -25.125 -2.5117 -42.8008 -15.1641 h 7.4414 24.0039 24.004 16.5625 v -27.6367 -24.2832 h -16.5625 v -18.5156 h -24.004 -24.0039 -7.4414 v -15.1641 h 7.4414 24.0039 24.004 24.0039 24.0039 16.5625 v -27.6367 -24.2832 h -16.5625 v -18.5156 h -24.0039 -24.0039 -24.004 -24.0039 -24.0039 -24.0039 z m 192.0313,0 v 45.3125 42.7988 42.8008 42.7988 42.8008 h 7.4414 v 25.125 h 16.5625 24.0039 16.5625 v -27.6367 -42.8008 -42.8008 -42.7988 -42.8008 -24.2832 h -16.5625 v -18.5156 h -24.0039 z m 72.0117,0 v 45.3125 42.7988 42.8008 42.7988 42.8008 h 7.4414 v 25.125 h 16.5625 24.0039 24.002 24.0039 24.0039 24.0039 24.0039 16.5625 v -25.125 -2.5117 -24.2852 h -16.5625 v -18.5156 h -24.0039 -24.0039 -24.0039 -24.0039 -7.4395 v -15.1641 h 7.4395 24.0039 24.0039 16.5625 v -27.6367 -24.2832 h -16.5625 v -18.5156 h -24.0039 -24.0039 -7.4395 v -15.1641 h 7.4395 24.0039 24.0039 24.0039 24.0039 16.5625 v -27.6367 -24.2832 h -16.5625 v -18.5156 h -24.0039 -24.0039 -24.0039 -24.0039 -24.002 -24.0039 z m 192.0293,0 v 45.3125 42.7988 42.8008 42.7988 42.8008 h 7.4414 v 25.125 h 16.5625 24.0039 24.0039 24.0039 24.0039 24.0039 16.5625 v -25.125 -2.5117 -15.1641 h 7.4414 16.5625 v -27.6367 -42.8008 -42.7988 -24.2852 h -16.5625 v -18.5156 h -7.4414 v -24.2832 h -16.5625 v -18.5156 h -24.0039 -24.0039 -24.0039 -24.0039 -24.0039 z m -864.1367,21.3867 h 13.6914 v 21.4121 h -3.3789 v -18.0332 h -10.3125 z m 96.0156,0 h 13.6914 v 21.4121 42.8008 42.7988 42.8008 42.8008 2.5117 22.2519 h -13.6914 -24.0039 -13.6914 v -22.2519 h 3.3789 v 18.873 h 10.3125 24.0039 10.3125 v -18.873 -2.5117 -42.8008 -42.8008 -42.7988 -42.8008 -18.0332 h -10.3125 z m 72.0098,0 h 13.6914 v 21.4121 42.8008 h -3.3789 v -42.8008 -18.0332 h -10.3125 z m 144.0234,0 h 13.6914 v 21.4121 42.8008 24.7656 h -13.6914 -10.3125 v 18.0332 24.7656 h -13.6914 -10.3125 v 18.0352 24.7656 h -13.6914 -10.3125 v 18.0352 24.7636 h -13.6914 -24.0039 -13.6914 v -22.2519 h 3.3789 v 18.873 h 10.3125 24.0039 10.3125 v -21.3847 -21.4141 h 13.6914 10.3125 v -21.3867 -21.4141 h 13.6914 10.3125 v -21.3867 -21.4121 h 13.6914 10.3125 v -21.3867 -42.8008 -18.0332 h -10.3125 z m 72.0117,0 h 13.6914 v 21.4121 42.8008 42.7988 42.8008 42.8008 24.7636 h -13.6914 -24.0039 -13.6914 v -22.2519 h 3.3789 v 18.873 h 10.3125 24.0039 10.3125 v -21.3847 -42.8008 -42.8008 -42.7988 -42.8008 -18.0332 h -10.3125 z m 192.0313,0 h 13.6914 v 21.4121 24.7656 h -13.6914 -24.0039 -24.0039 -24.004 -24.0039 -10.3125 v 18.0352 h -3.3789 v -21.4141 h 13.6914 24.0039 24.004 24.0039 24.0039 10.3125 v -21.3867 -18.0332 h -10.3125 z m 72.0117,0 h 13.6914 v 21.4121 42.8008 42.7988 42.8008 42.8008 24.7636 h -13.6914 -24.0039 -13.6914 v -22.2519 h 3.3789 v 18.873 h 10.3125 24.0039 10.3125 v -21.3847 -42.8008 -42.8008 -42.7988 -42.8008 -18.0332 h -10.3125 z m 192.0293,0 h 13.6914 v 21.4121 24.7656 h -13.6914 -24.0039 -24.0039 -24.0039 -24.0039 -10.3106 v 18.0352 h -3.3789 v -21.4141 h 13.6895 24.0039 24.0039 24.0039 24.0039 10.3125 v -21.3867 -18.0332 h -10.3125 z m 168.0273,0 h 13.6914 v 21.4121 h -3.3789 v -18.0332 h -10.3125 z m -1008.1601,6.25 h 7.4414 v 15.1621 h -7.4414 z m 96.0156,0 h 7.4414 v 17.6758 42.7988 42.8008 42.7988 40.2891 2.5117 16.0039 h -7.4414 -24.0039 -7.4414 v -16.0039 h 7.4414 24.0039 v -45.3125 -42.8008 -42.7988 -42.8008 z m 72.0098,0 h 7.4414 v 17.6758 40.2871 h -7.4414 v -42.8008 z m 144.0234,0 h 7.4414 v 17.6758 42.7988 16.0039 h -7.4414 -16.5625 v 26.7969 16.0019 h -7.4414 -16.5625 v 26.7969 16.0039 h -7.4414 -16.5625 v 26.7969 16.0039 h -7.4414 -24.0039 -7.4414 v -16.0039 h 7.4414 24.0039 v -42.8008 h 24.0039 v -42.7988 h 24.0039 v -42.8008 h 24.0039 v -45.3125 z m 72.0117,0 h 7.4414 v 17.6758 42.7988 42.8008 42.7988 42.8008 16.0039 h -7.4414 -24.0039 -7.4414 v -16.0039 h 7.4414 24.0039 v -45.3125 -42.8008 -42.7988 -42.8008 z m 192.0313,0 h 7.4414 v 17.6758 16.0019 h -7.4414 -24.0039 -24.0039 -24.004 -24.0039 -16.5625 v 24.2852 h -7.4414 v -40.2871 h 24.0039 24.0039 24.004 24.0039 24.0039 z m 72.0117,0 h 7.4414 v 17.6758 42.7988 42.8008 42.7988 42.8008 16.0039 h -7.4414 -24.0039 -7.4414 v -16.0039 h 7.4414 24.0039 v -45.3125 -42.8008 -42.7988 -42.8008 z m 192.0293,0 h 7.4414 v 17.6758 16.0019 h -7.4414 -24.0039 -24.0039 -24.0039 -24.0039 -16.5606 v 24.2852 h -7.4414 v -40.2871 h 24.002 24.0039 24.0039 24.0039 24.0039 z m 168.0273,0 h 7.4414 v 15.1621 h -7.4414 z m -1104.1758,17.6758 h 24.004 24.0039 24.0039 v 16.0019 h -24.0039 -24.0039 -16.5625 v 26.7969 42.8008 40.2871 h -7.4415 v -42.8008 -42.7988 z m 1008.1602,0 h 24.0039 24.0039 24.0039 v 16.0019 h -24.0039 -24.0039 -16.5625 v 26.7969 42.8008 40.2871 h -7.4414 v -42.8008 -42.7988 z m -997.8477,18.873 h 13.6915 24.0039 24.0039 v 3.3789 h -24.0039 -24.0039 -10.3125 v 18.0352 42.7988 42.8008 h -3.379 v -42.8008 -42.7988 z m 109.7071,0 h 13.6914 v 21.4141 42.7988 42.8008 24.7656 h -13.6914 -10.3125 v 18.0352 24.7636 h -13.6914 -24.0039 -24.0039 -24.0039 -24.004 -24.0039 -13.6914 v -22.2519 h 3.3789 v 18.873 h 10.3125 24.0039 24.004 24.0039 24.0039 24.0039 10.3125 v -21.3847 -21.4141 h 13.6914 10.3125 v -21.3867 -42.8008 -42.7988 -18.0352 h -10.3125 z m 898.4531,0 h 13.6914 24.0039 24.0039 v 3.3789 h -24.0039 -24.0039 -10.3125 v 18.0352 42.7988 42.8008 h -3.3789 v -42.8008 -42.7988 z m 109.707,0 h 13.6914 v 21.4141 42.7988 42.8008 24.7656 h -13.6914 -10.3125 v 18.0352 2.5117 22.2519 h -13.6914 -24.0039 -24.0039 -24.0039 -24.0039 -24.0039 -13.6914 v -22.2519 h 3.3789 v 18.873 h 10.3125 24.0039 24.0039 24.0039 24.0039 24.0039 10.3125 v -18.873 -2.5117 -21.4141 h 13.6914 10.3125 v -21.3867 -42.8008 -42.7988 -18.0352 h -10.3125 z m -1111.6172,6.25 h 7.4415 24.0039 24.0039 v 17.6758 42.8008 40.2871 h -24.0039 -24.0039 -7.4415 v -42.8008 -42.7988 z m 103.4571,0 h 7.4414 v 17.6758 42.8008 42.7988 16.0039 h -7.4414 -16.5625 v 26.7969 16.0039 h -7.4414 -24.0039 -24.0039 -24.0039 -24.004 -24.0039 -7.4414 v -16.0039 h 7.4414 24.0039 24.004 24.0039 24.0039 24.0039 v -42.8008 h 24.0039 v -45.3125 -42.7988 z m 904.7031,0 h 7.4414 24.0039 24.0039 v 17.6758 42.8008 40.2871 h -24.0039 -24.0039 -7.4414 v -42.8008 -42.7988 z m 103.457,0 h 7.4414 v 17.6758 42.8008 42.7988 16.0039 h -7.4414 -16.5625 v 24.2852 2.5117 16.0039 h -7.4414 -24.0039 -24.0039 -24.0039 -24.0039 -24.0039 -7.4414 v -16.0039 h 7.4414 24.0039 24.0039 24.0039 24.0039 24.0039 v -42.8008 h 24.0039 v -45.3125 -42.7988 z m -901.832,17.6758 h 3.377 v 18.875 h 10.3125 v 3.3789 h -13.6895 z m 6.248,0 h 7.4415 v 16.0039 h -7.4415 z m 55.4493,18.875 h 13.6914 v 21.4121 h -3.3789 v -18.0332 h -10.3125 z m 336.0547,0 h 13.6914 v 21.4121 24.7656 h -13.6914 -24.004 -24.0039 -10.3125 v 18.0352 42.8008 2.5117 22.2519 h -13.6914 -24.0039 -13.6914 v -22.2519 h 3.3789 v 18.873 h 10.3125 24.0039 10.3125 v -18.873 -2.5117 -42.8008 -21.4141 h 13.6914 24.0039 24.004 10.3125 v -21.3867 -18.0332 h -10.3125 z m 264.041,0 h 13.6914 v 21.4121 24.7656 h -13.6914 -24.0039 -24.0039 -10.3106 v 18.0352 h -3.3789 v -21.4141 h 13.6895 24.0039 24.0039 10.3125 v -21.3867 -18.0332 h -10.3125 z m -600.0957,6.25 h 7.4414 v 15.1621 h -7.4414 z m 336.0547,0 h 7.4414 v 17.6758 16.0019 h -7.4414 -24.004 -24.0039 -16.5625 v 26.7969 40.2891 2.5117 16.0039 h -7.4414 -24.0039 -7.4414 v -16.0039 h 7.4414 24.0039 v -45.3125 -40.2871 h 24.0039 24.0039 24.004 z m 264.041,0 h 7.4414 v 17.6758 16.0019 h -7.4414 -24.0039 -24.0039 -16.5606 v 24.2852 h -7.4414 v -40.2871 h 24.002 24.0039 24.0039 z m -637.791,17.6758 h 3.3789 v 18.873 h 10.3125 v 3.3789 h -13.6914 z m 6.25,0 h 7.4414 v 16.0019 h -7.4414 z m 17.7539,42.7988 h 3.3789 v 18.875 h 10.3125 v 3.3789 h -13.6914 z m 6.25,0 h 7.4414 v 16.0039 h -7.4414 z m 655.5449,18.875 h 13.6914 v 21.4141 2.5117 22.2519 h -13.6914 -24.0039 -24.0039 -24.0039 -24.0039 -24.002 -24.0039 -13.6914 v -22.2519 h 3.3789 v 18.873 h 10.3125 24.0039 24.002 24.0039 24.0039 24.0039 24.0039 10.3125 v -18.873 -2.5117 -18.0352 h -10.3125 z m 0,6.25 h 7.4414 v 15.1641 2.5117 16.0039 h -7.4414 -24.0039 -24.0039 -24.0039 -24.0039 -24.002 -24.0039 -7.4414 v -16.0039 h 7.4414 24.0039 24.002 24.0039 24.0039 24.0039 24.0039 z"
         transform="matrix(0.26458333,0,0,0.26458333,-96.379791,58.719553)" />
    </g>
  </g>
</svg>
