<?xml version="1.0" encoding="UTF-8" standalone="no"?>
<!-- Created with Inkscape (http://www.inkscape.org/) -->

<svg
   width="400mm"
   height="63.933109mm"
   viewBox="0 0 399.99999 63.933109"
   version="1.1"
   id="svg670792"
   sodipodi:docname="divify_banner.svg"
   inkscape:version="1.1.1 (3bf5ae0d25, 2021-09-20)"
   xmlns:inkscape="http://www.inkscape.org/namespaces/inkscape"
   xmlns:sodipodi="http://sodipodi.sourceforge.net/DTD/sodipodi-0.dtd"
   xmlns="http://www.w3.org/2000/svg"
   xmlns:svg="http://www.w3.org/2000/svg">
  <sodipodi:namedview
     id="namedview670794"
     pagecolor="#ffffff"
     bordercolor="#666666"
     borderopacity="1.0"
     inkscape:pageshadow="2"
     inkscape:pageopacity="0.0"
     inkscape:pagecheckerboard="0"
     inkscape:document-units="mm"
     showgrid="false"
     inkscape:zoom="0.32"
     inkscape:cx="821.875"
     inkscape:cy="-117.1875"
     inkscape:window-width="1920"
     inkscape:window-height="1011"
     inkscape:window-x="-8"
     inkscape:window-y="-8"
     inkscape:window-maximized="1"
     inkscape:current-layer="layer8"
     fit-margin-top="0"
     fit-margin-left="0"
     fit-margin-right="0"
     fit-margin-bottom="0" />
  <defs
     id="defs670789" />
  <g
     inkscape:label="Layer 1"
     inkscape:groupmode="layer"
     id="layer1"
     transform="translate(42.65922,-633.09626)">
    <g
       aria-label=" ██████╗ ██╗██╗   ██╗██╗███████╗██╗   ██╗ ██╔══██╗██║██║   ██║‎‎‎██║██╔════╝╚██╗ ██╔╝ ██║  ██║██║██║   ██║██║█████╗   ╚████╔╝  ██║  ██║██║╚██╗ ██╔╝██║██╔══╝    ╚██╔╝   ██████╔╝██║ ╚████╔╝ ██║██║        ██║    ╚═════╝ ╚═╝  ╚═══╝  ╚═╝╚═╝        ╚═╝    "
       id="text1816-40-3"
       style="font-size:10.5833px;line-height:0;font-family:'Courier New';-inkscape-font-specification:'Courier New';letter-spacing:0px;word-spacing:0px;display:inline;stroke-width:0.264583"
       transform="translate(-336.59159,-201.58716)" />
  </g>
  <g
     inkscape:groupmode="layer"
     id="layer8"
     inkscape:label="text"
     style="display:inline"
     transform="translate(3.37302,-552.35345)">
    <path
       id="path840467"
       style="font-size:10.5833px;line-height:1.25;font-family:'Courier New';-inkscape-font-specification:'Courier New';letter-spacing:0px;word-spacing:0px;display:inline;fill:#000000;fill-opacity:1;stroke:none;stroke-width:0.265;stroke-miterlimit:4;stroke-dasharray:none;stroke-opacity:1"
       d="m 70.591005,552.35346 v 11.9889 11.3239 11.3244 11.3244 11.3238 h 1.96887 v 6.6477 h 4.38216 6.35104 6.35103 6.35103 6.351025 6.35106 4.38213 v -6.6477 -0.66461 -4.01209 h 1.9689 4.38216 v -7.31221 -11.3239 -11.3244 -6.4254 h -4.38216 v -4.8984 h -1.9689 v -6.4255 h -4.38213 v -4.8989 h -6.35106 -6.351025 -6.35103 -6.35103 -6.35104 z m 50.808275,0 v 11.9889 11.3239 11.3244 11.3244 11.3238 h 1.96887 v 6.6477 h 4.38216 6.35104 4.38216 v -6.6477 -0.66461 -11.3243 -11.3239 -11.3244 -11.3238 -6.4255 h -4.38216 v -4.8989 h -6.35104 z m 19.0531,0 v 11.9889 11.3239 11.3244 h 1.96887 v 6.6476 h 4.38216 v 4.6768 h 1.96887 v 6.6471 h 4.38216 v 4.6767 h 1.96887 v 6.6477 h 4.38216 6.35104 6.35103 6.35103 4.38216 v -6.6477 -0.66461 -4.01209 h 1.96887 4.38216 v -7.31221 -4.0117 h 1.96887 4.38216 v -7.3122 -11.3244 -11.3238 -6.4255 h -4.38216 v -4.8989 h -6.35103 -6.35103 v 11.9889 11.3239 10.6598 h -6.35103 v 11.3239 h -6.35103 -1.96887 v -6.425 h -4.38217 v -4.8989 h -1.96887 v -11.3244 -11.3238 -6.4255 h -4.38216 v -4.8989 h -6.35103 z m 57.15928,0 v 11.9889 11.3239 11.3244 11.3244 11.3238 h 1.96887 v 6.6477 h 4.38217 6.35053 4.38216 v -6.6477 -0.66461 -11.3243 -11.3239 -11.3244 -11.3238 -6.4255 h -4.38216 v -4.8989 h -6.35053 z m 19.0526,0 v 11.9889 11.3239 11.3244 11.3244 11.3238 h 1.96887 v 6.6477 h 4.38216 6.35103 4.38216 v -6.6477 -0.66461 -11.3243 -4.0117 h 1.96887 6.35103 6.35104 4.38216 v -7.3122 -6.4254 h -4.38216 v -4.899 h -6.35104 -6.35103 -1.96887 v -4.0121 h 1.96887 6.35103 6.35104 6.35103 6.35103 4.38216 v -7.31169 -6.42551 h -4.38216 v -4.8989 h -6.35103 -6.35103 -6.35104 -6.35103 -6.35103 -6.35103 z m 50.80828,0 v 11.9889 h 1.96887 v 6.6472 h 4.38216 v 4.6767 h 1.96887 v 6.6477 h 4.38216 v 4.6767 h 1.96887 v 6.6476 h 4.38216 v 4.6768 11.3238 h 1.96887 v 6.6477 h 4.38217 6.35103 4.38216 v -6.6477 -0.66461 -11.3243 -4.0117 h 1.96887 4.38216 v -7.3122 -4.0121 h 1.96887 4.38216 v -7.3123 -4.0121 h 1.96887 4.38216 v -7.31169 -6.42551 h -4.38216 v -4.8989 h -6.35103 -6.35103 v 11.3244 h -6.35103 v 11.3238 h -6.35103 -1.96888 v -6.4254 h -4.38216 v -4.8984 h -1.96887 v -6.4255 h -4.38216 v -4.8989 h -6.35103 z m -158.77531,5.6586 h 3.62252 v 5.6658 h -0.89403 v -4.7718 h -2.72849 z m 25.40413,0 h 3.62251 v 5.6658 11.3238 11.3244 11.3239 11.3243 0.6646 5.888 h -3.62251 -6.35104 -3.62251 v -5.888 h 0.894 v 4.994 h 2.72851 6.35104 2.72851 v -4.994 -0.6646 -11.3243 -11.3239 -11.3244 -11.3238 -4.7718 h -2.72851 z m 19.05309,0 h 3.62252 v 5.6658 11.3238 11.3244 h -0.894 v -11.3244 -11.3238 -4.7718 h -2.72852 z m 38.10618,0 h 3.62253 v 5.6658 11.3238 11.3244 6.5526 h -3.62253 -2.72851 v 4.7713 6.5526 h -3.62252 -2.72851 v 4.7717 0.6646 5.888 h -3.62252 -6.35103 -6.35103 -6.35104 -3.62251 v -5.888 h 0.894 v 4.994 h 2.72851 6.35104 6.35103 6.35103 2.72851 v -4.994 -0.6646 -5.6657 h 3.62252 2.72852 v -5.6586 -5.6653 h 3.62251 2.72852 v -5.6586 -11.3244 -11.3238 -4.7718 h -2.72852 z m 19.0526,0 h 3.62251 v 5.6658 11.3238 11.3244 11.3239 11.3243 0.6646 5.888 h -3.62251 -6.35053 -3.62252 v -5.888 h 0.894 v 4.994 h 2.72852 6.35053 2.72852 v -4.994 -0.6646 -11.3243 -11.3239 -11.3244 -11.3238 -4.7718 h -2.72852 z m 50.80825,0 h 3.62254 v 5.6658 6.5526 h -3.62254 -6.35103 -6.35102 -6.35105 -6.35102 -2.72852 v 4.7712 h -0.894 v -5.6652 h 3.62251 6.35103 6.35104 6.35103 6.35103 2.72852 v -5.6586 -4.7718 h -2.72852 z m 19.05312,0 h 3.62252 v 5.6658 h -0.894 v -4.7718 h -2.72852 z m 38.10619,0 h 3.62252 v 5.6658 6.5526 h -3.62252 -2.72851 v 4.7712 6.5526 h -3.62252 -2.72852 v 4.7718 6.5526 h -3.62251 -2.72852 v 4.7713 11.3243 0.6646 5.888 h -3.62251 -6.35103 -3.62252 v -5.888 h 0.894 v 4.994 h 2.72852 6.35103 2.72851 v -4.994 -0.6646 -11.3243 -5.6653 h 3.62252 2.72851 v -5.6586 -5.6658 h 3.62252 2.72852 v -5.6586 -5.6652 h 3.62251 2.72852 v -5.6586 -4.7718 h -2.72852 z m -209.58357,1.6536 h 1.96887 v 4.0122 h -1.96887 z m 25.40413,0 h 1.96887 v 4.6767 11.3239 11.3244 11.3244 10.6592 0.6646 4.2344 h -1.96887 -6.35104 -1.96887 v -4.2344 h 1.96887 6.35104 v -11.9889 -11.3239 -11.3244 -11.3238 z m 19.05309,0 h 1.96887 v 4.6767 11.3239 10.6598 h -1.96887 v -11.3244 -11.3238 z m 38.10619,0 h 1.96887 v 4.6767 11.3239 11.3244 4.2343 h -1.96887 -4.38216 v 7.0901 4.2338 h -1.96887 -4.38216 v 6.4254 0.6646 4.2344 h -1.96887 -6.35103 -6.35103 -6.35104 -1.96887 v -4.2344 h 1.96887 6.35104 6.35103 6.35103 v -11.3238 h 6.35103 v -11.3244 h 6.35103 v -11.989 -11.3238 z m 19.0526,0 h 1.96887 v 4.6767 11.3239 11.3244 11.3244 10.6592 0.6646 4.2344 h -1.96887 -6.35053 -1.96887 v -4.2344 h 1.96887 6.35053 v -11.9889 -11.3239 -11.3244 -11.3238 z m 50.80825,0 h 1.9689 v 4.6767 4.2339 h -1.9689 -6.35103 -6.35103 -6.35104 -6.35103 -4.38216 v 6.4254 h -1.96887 v -10.6593 h 6.35103 6.35103 6.35104 6.35103 6.35103 z m 19.05312,0 h 1.96887 v 4.0122 h -1.96887 z m 38.10619,0 h 1.96887 v 4.6767 4.2339 h -1.96887 -4.38216 v 7.09 4.2344 h -1.96887 -4.38216 v 7.09 4.2343 h -1.96887 -4.38216 v 7.0901 10.6592 0.6646 4.2344 h -1.96887 -6.35103 -1.96888 v -4.2344 h 1.96888 6.35103 v -11.9889 -10.6593 h 6.35103 v -11.3244 h 6.35103 v -11.3239 h 6.35103 z m -234.987715,4.6767 h 6.35103 6.35103 6.351025 v 4.2339 h -6.351025 -6.35103 -4.38216 v 7.09 11.3244 10.6593 h -1.96887 v -11.3239 -11.3244 z m 186.907975,0 h 0.894 v 4.9941 h 2.72852 v 0.894 h -3.62252 z m 1.65365,0 h 1.96887 v 4.2339 h -1.96887 z m -185.833115,4.9941 h 3.62252 6.35103 6.351025 v 0.894 h -6.351025 -6.35103 -2.72852 v 4.7712 11.3244 11.3239 h -0.894 v -11.3239 -11.3244 z m 29.026665,0 h 3.62252 v 5.6652 11.3244 11.3239 6.5526 h -3.62252 -2.72851 v 4.7717 0.6646 5.888 h -3.62252 -6.35106 -6.351025 -6.35103 -6.35103 -6.35104 -3.62251 v -5.888 h 0.894 v 4.994 h 2.72851 6.35104 6.35103 6.35103 6.351025 6.35106 2.72849 v -4.994 -0.6646 -5.6657 h 3.62254 2.72852 v -5.6586 -11.3239 -11.3244 -4.7712 h -2.72852 z m 171.47738,0 h 3.62252 v 5.6652 h -0.894 v -4.7712 h -2.72852 z m -198.850395,1.6531 h 1.96887 6.35103 6.351025 v 4.6767 11.3244 10.6593 h -6.351025 -6.35103 -1.96887 v -11.3239 -11.3244 z m 27.373015,0 h 1.96887 v 4.6767 11.3244 11.3244 4.2338 h -1.96887 -4.38216 v 6.4254 0.6646 4.2344 h -1.96887 -6.35106 -6.351025 -6.35103 -6.35103 -6.35104 -1.96887 v -4.2344 h 1.96887 6.35104 6.35103 6.35103 6.351025 6.35106 v -11.3238 h 6.35103 v -11.989 -11.3244 z m 171.47738,0 h 1.96887 v 4.0121 h -1.96887 z m -9.97354,4.6767 h 0.894 v 4.994 h 2.72851 v 0.894 h -3.62251 z m 1.65364,0 h 1.96887 v 4.2344 h -1.96887 z m -29.78631,4.994 h 3.62251 v 5.6658 6.5526 h -3.62251 -6.35104 -6.35103 -2.72851 v 4.7713 11.3243 0.6646 5.888 h -3.62252 -6.35103 -3.62252 v -5.888 h 0.894 v 4.994 h 2.72852 6.35103 2.72852 v -4.994 -0.6646 -11.3243 -5.6653 h 3.62251 6.35103 6.35104 2.72851 v -5.6586 -4.7718 h -2.72851 z m 0,1.6537 h 1.96887 v 4.6767 4.2343 h -1.96887 -6.35104 -6.35103 -4.38216 v 7.0901 10.6592 0.6646 4.2344 h -1.96887 -6.35103 -1.96887 v -4.2344 h 1.96887 6.35103 v -11.9889 -10.6593 h 6.35103 6.35103 6.35104 z m -105.23853,4.6767 h 0.894 v 4.994 h 2.72852 v 0.894 h -3.62252 z m 1.65365,0 h 1.96887 v 4.2343 h -1.96887 z m 138.06858,0 h 0.894 v 4.994 h 2.72851 v 0.894 h -3.62251 z m 1.65364,0 h 1.96887 v 4.2343 h -1.96887 z m -125.05129,4.994 h 3.62252 v 5.66529 h -0.894 v -4.7713 h -2.72852 z m 0,1.6536 h 1.96887 v 4.0117 h -1.96887 z m -9.97354,4.6768 h 0.894 v 4.9935 h 2.72851 v 0.894 h -3.62251 z m 1.65364,0 h 1.96887 v 4.2338 h -1.96887 z" />
  </g>
  <g
     inkscape:groupmode="layer"
     id="layer9"
     inkscape:label="dots"
     transform="translate(3.37302,-552.35345)"
     style="display:inline" />
</svg>
