<?xml version="1.0" encoding="UTF-8" standalone="no"?>
<!-- Created with Inkscape (http://www.inkscape.org/) -->

<svg
   width="400mm"
   height="63.933044mm"
   viewBox="0 0 400 63.933045"
   version="1.1"
   id="svg34998"
   inkscape:version="1.1.1 (3bf5ae0d25, 2021-09-20)"
   sodipodi:docname="original_banner.svg"
   xmlns:inkscape="http://www.inkscape.org/namespaces/inkscape"
   xmlns:sodipodi="http://sodipodi.sourceforge.net/DTD/sodipodi-0.dtd"
   xmlns="http://www.w3.org/2000/svg"
   xmlns:svg="http://www.w3.org/2000/svg">
  <sodipodi:namedview
     id="namedview35000"
     pagecolor="#ffffff"
     bordercolor="#666666"
     borderopacity="1.0"
     inkscape:pageshadow="2"
     inkscape:pageopacity="0.0"
     inkscape:pagecheckerboard="0"
     inkscape:document-units="mm"
     showgrid="false"
     inkscape:zoom="0.18975168"
     inkscape:cx="-706.1861"
     inkscape:cy="-1299.0662"
     inkscape:window-width="1920"
     inkscape:window-height="1011"
     inkscape:window-x="-8"
     inkscape:window-y="-8"
     inkscape:window-maximized="1"
     inkscape:current-layer="layer1"
     fit-margin-top="0"
     fit-margin-left="0"
     fit-margin-right="0"
     fit-margin-bottom="0" />
  <defs
     id="defs34995" />
  <g
     inkscape:label="Layer 1"
     inkscape:groupmode="layer"
     id="layer1"
     transform="translate(3.2453914,-134.95674)">
    <g
       aria-label="  █████╗ ██████╗ ██╗ ██████╗ ██╗███╗  ██╗ █████╗ ██╗      ██╔══██╗██╔══██╗██║██╔════╝ ██║████╗ ██║██╔══██╗██║      ██║  ██║██████╔╝██║██║  ██╗ ██║██╔██╗██║███████║██║      ██║  ██║██╔══██╗██║██║  ╚██╗██║██║╚████║██╔══██║██║      ╚█████╔╝██║  ██║██║╚██████╔╝██║██║ ╚███║██║  ██║███████╗  ╚════╝ ╚═╝  ╚═╝╚═╝ ╚═════╝ ╚═╝╚═╝  ╚══╝╚═╝  ╚═╝╚══════╝"
       id="text1816-40-90"
       style="font-size:10.5833px;line-height:0;font-family:'Courier New';-inkscape-font-specification:'Courier New';letter-spacing:0px;word-spacing:0px;display:inline;fill:#000000;fill-opacity:1;stroke:none;stroke-width:0.264583"
       transform="translate(62.68955,-834.18939)">
      <path
         id="path14073"
         style="line-height:1.07;fill:#000000;fill-opacity:1;stroke:none;stroke-width:0.999999"
         d="m 226.58984,3440.9824 v 42.8008 h -24.0039 v 45.3125 42.7988 42.8008 h 7.4414 v 25.1231 h 16.5625 v 17.6757 h 7.44141 v 25.125 h 16.5625 24.00391 24.0039 24.00391 24.00391 16.5625 v -27.6367 -15.164 h 7.4414 16.5625 v -27.6368 -42.7988 -42.8008 -24.2832 h -16.5625 v -18.5156 h -7.4414 v -24.2852 h -16.5625 v -18.5156 h -24.00391 -24.00391 -24.0039 -24.00391 z m 168.02735,0 v 45.3125 42.8008 42.7988 42.8008 42.7988 h 7.4414 v 25.125 h 16.5625 24.00391 16.5625 v -27.6367 -42.8008 -15.1621 h 7.44141 24.0039 24.00391 v 17.6758 42.7988 h 7.4414 v 25.125 h 16.5625 24.00391 16.56055 v -27.6367 -42.8008 -24.2832 h -16.56055 v -18.5156 h -7.44141 v -15.164 h 7.44141 16.56055 v -27.6368 -24.2832 h -16.56055 v -18.5156 h -7.44141 v -24.2852 h -16.5625 v -18.5156 h -24.0039 -24.00391 -24.0039 -24.00391 -24.00391 z m 192.02929,0 v 45.3125 42.8008 42.7988 42.8008 42.7988 h 7.44141 v 25.125 h 16.5625 24.00391 16.5625 v -27.6367 -42.8008 -42.7988 -42.8008 -42.7988 -24.2852 h -16.5625 v -18.5156 h -24.00391 z m 96.01563,0 v 42.8008 H 658.6582 v 45.3125 42.7988 42.8008 h 7.44141 v 25.1231 h 16.5625 v 17.6757 h 7.44141 v 25.125 h 16.5625 24.0039 24.00391 24.0039 24.00391 24.00391 16.5625 v -25.125 -2.5117 -15.164 h 7.4414 16.5625 v -27.6368 -24.2832 h -16.5625 v -18.5156 h -7.4414 v -24.2851 h -16.5625 v -18.5157 h -24.00391 -24.00391 v 45.3125 h 7.44141 v 25.125 h 16.5625 v 15.1621 h -24.00391 -24.0039 -24.00391 -7.4414 v -42.7988 -42.8008 -15.1621 h 7.4414 24.00391 24.0039 24.00391 24.00391 16.5625 v -27.6367 -24.2852 h -16.5625 v -18.5156 h -24.00391 -24.00391 -24.0039 -24.00391 -24.0039 z m 192.03125,0 v 45.3125 42.8008 42.7988 42.8008 42.7988 h 7.44141 v 25.125 h 16.5625 24.0039 16.5625 v -27.6367 -42.8008 -42.7988 -42.8008 -42.7988 -24.2852 h -16.5625 v -18.5156 h -24.0039 z m 72.01172,0 v 45.3125 42.8008 42.7988 42.8008 42.7988 h 7.4414 v 25.125 h 16.5625 24.00391 16.56251 v -27.6367 -42.8008 -42.7988 -15.164 h 7.4414 v 17.6757 h 7.4414 v 25.125 h 16.5625 v 17.6758 h 7.4414 v 25.1231 h 16.5625 v 17.6757 h 7.4414 v 25.125 h 16.5625 24.0039 24.0039 16.5625 v -25.125 -2.5117 -42.8008 -42.7988 -42.8008 -42.7988 -24.2852 h -16.5625 v -18.5156 h -24.0039 -24.0039 v 45.3125 42.8008 40.2871 h -7.4414 v -24.2851 h -16.5625 v -18.5157 h -7.4414 v -24.2832 h -16.5625 v -18.5156 h -7.4414 v -24.2852 h -16.5625 v -18.5156 h -24.00391 -24.00391 z m 240.03712,0 v 42.8008 h -24.002 v 45.3125 42.7988 42.8008 42.7988 h 7.4414 v 25.125 h 16.5606 24.0039 16.5625 v -27.6367 -42.8008 -15.1621 h 7.4414 24.0039 24.0039 v 17.6758 42.7988 h 7.4414 v 25.125 h 16.5625 24.0039 16.5625 v -27.6367 -42.8008 -42.7988 -42.8008 -24.2832 h -16.5625 v -18.5156 h -7.4414 v -24.2852 h -16.5625 v -18.5156 h -24.0039 -24.0039 -24.0039 -24.0039 z m 168.0273,0 v 45.3125 42.8008 42.7988 42.8008 42.7988 h 7.4414 v 25.125 h 16.5625 24.0039 24.0039 24.004 24.0039 24.0039 24.0039 16.5625 v -25.125 -2.5117 -24.2851 h -16.5625 v -18.5157 h -24.0039 -24.0039 -24.0039 -24.004 -7.4414 v -42.7988 -42.8008 -42.7988 -24.2852 h -16.5625 v -18.5156 h -24.0039 z m -1008.16012,21.3867 h 13.6914 v 21.4141 h -3.3789 v -18.0352 h -10.3125 z m 192.03124,0 h 13.69141 v 21.4141 h -3.37891 v -18.0352 h -10.3125 z m 96.01368,0 h 13.6914 v 21.4141 42.7988 42.8008 42.7988 42.8008 24.7656 h -13.6914 -24.00391 -13.69141 v -22.2539 h 3.37891 v 18.875 h 10.3125 24.00391 10.3125 v -21.3867 -42.8008 -42.7988 -42.8008 -42.7988 -18.0352 h -10.3125 z m 192.03125,0 h 13.6914 v 21.4141 24.7656 h -13.6914 -24.00391 -24.00391 -24.0039 -24.00391 -10.3125 v 18.0332 42.8008 42.7988 h -3.3789 v -42.7988 -42.8008 -21.4121 h 13.6914 24.00391 24.0039 24.00391 24.00391 10.3125 v -21.3867 -18.0352 h -10.3125 z m 96.01562,0 h 13.69141 v 21.4141 42.7988 42.8008 42.7988 42.8008 24.7656 h -13.69141 -24.0039 -13.69141 v -22.2539 h 3.37891 v 18.875 h 10.3125 24.0039 10.3125 v -21.3867 -42.8008 -42.7988 -42.8008 -42.7988 -18.0352 h -10.3125 z m 96.01563,0 h 13.6914 v 21.4141 h -3.3789 v -18.0352 h -10.3125 z m 120.0195,0 h 13.6914 v 21.4141 42.7988 42.8008 42.7988 42.8008 2.5117 22.2539 h -13.6914 -24.0039 -24.0039 -13.6914 v -22.2539 h 3.3789 v 18.875 h 10.3125 24.0039 24.0039 10.3125 v -18.875 -2.5117 -42.8008 -42.7988 -42.8008 -42.7988 -18.0352 h -10.3125 z m 168.0254,0 h 13.6914 v 21.4141 h -3.3789 v -18.0352 h -10.3125 z m 96.0156,0 h 13.6915 v 21.4141 42.7988 42.8008 42.7988 h -3.379 v -42.7988 -42.8008 -42.7988 -18.0352 h -10.3125 z m -1056.16792,6.25 h 7.4414 v 15.1641 h -7.4414 z m 192.03124,0 h 7.44141 v 15.1641 h -7.44141 z m 96.01368,0 h 7.4414 v 17.6758 42.8008 42.7988 42.8008 42.7988 16.0039 h -7.4414 -24.00391 -7.44141 v -16.0039 h 7.44141 24.00391 v -45.3125 -42.7988 -42.8008 -42.7988 z m 192.03125,0 h 7.4414 v 17.6758 16.0039 h -7.4414 -24.00391 -24.00391 -24.0039 -24.00391 -16.5625 v 26.7969 42.7988 40.2871 h -7.4414 v -42.7988 -42.8008 -40.2871 h 24.0039 24.00391 24.0039 24.00391 24.00391 z m 96.01562,0 h 7.44141 v 17.6758 42.8008 42.7988 42.8008 42.7988 16.0039 h -7.44141 -24.0039 -7.44141 v -16.0039 h 7.44141 24.0039 v -45.3125 -42.7988 -42.8008 -42.7988 z m 96.01563,0 h 7.4414 v 15.1641 h -7.4414 z m 120.0195,0 h 7.4414 v 17.6758 42.8008 42.7988 42.8008 40.2871 2.5117 16.0039 h -7.4414 -24.0039 -24.0039 -7.4414 v -16.0039 h 7.4414 24.0039 24.0039 v -45.3125 -42.7988 -42.8008 -42.7988 z m 168.0254,0 h 7.4414 v 15.1641 h -7.4414 z m 96.0156,0 h 7.4415 v 17.6758 42.8008 42.7988 40.2871 h -7.4415 v -42.7988 -42.8008 -42.7988 z m -1152.18355,17.6758 h 24.00391 24.0039 24.00391 v 16.0039 h -24.00391 -24.0039 -16.5625 v 26.7969 42.7988 40.2871 h -7.44141 v -42.7988 -42.8008 z m 192.03125,0 h 24.00391 24.0039 24.00391 v 16.0039 h -24.00391 -24.0039 -16.5625 v 24.2832 H 442.625 Z m 768.1211,0 h 24.0039 24.0039 24.0039 v 16.0039 h -24.0039 -24.0039 -16.5625 v 24.2832 h -7.4414 z m -949.83985,18.875 h 13.69141 24.0039 24.00391 v 3.3789 h -24.00391 -24.0039 -10.3125 v 18.0332 42.8008 42.7988 h -3.37891 v -42.7988 -42.8008 z m 109.70703,0 h 13.69141 v 21.4121 42.8008 42.7988 24.7657 h -13.69141 -10.3125 v 18.0351 24.7656 h -13.6914 -24.00391 -24.00391 -24.0039 -24.00391 -13.69141 v -22.2539 h 3.37891 v 18.875 h 10.3125 24.00391 24.0039 24.00391 24.00391 10.3125 v -21.3867 -21.414 h 13.6914 10.3125 v -21.3868 -42.7988 -42.8008 -18.0332 h -10.3125 z m 82.32422,0 h 13.69141 24.0039 24.00391 v 3.3789 h -24.00391 -24.0039 -10.3125 v 18.0332 h -3.37891 z m 109.70703,0 h 13.68945 v 21.4121 24.7657 h -13.68945 -10.3125 v 18.0351 h -3.37891 v -21.414 h 13.69141 10.31055 v -21.3868 -18.0332 h -10.31055 z m 480.07617,0 h 13.6914 v 21.4121 h -3.3789 v -18.0332 h -10.3125 z m 178.3379,0 h 13.6914 24.0039 24.0039 v 3.3789 h -24.0039 -24.0039 -10.3125 v 18.0332 h -3.3789 z m 109.707,0 h 13.6914 v 21.4121 42.8008 42.7988 42.8008 24.7656 h -13.6914 -24.0039 -13.6914 v -22.2539 h 3.3789 v 18.875 h 10.3125 24.0039 10.3125 v -21.3867 -42.8008 -42.7988 -42.8008 -18.0332 h -10.3125 z m -1063.60935,6.25 h 7.44141 24.0039 24.00391 v 17.6758 42.7988 40.2871 h -24.00391 -24.0039 -7.44141 v -42.7988 -42.8008 z m 103.45703,0 h 7.44141 v 17.6758 42.7988 42.8008 16.002 h -7.44141 -16.5625 v 26.7968 16.0039 h -7.4414 -24.00391 -24.00391 -24.0039 -24.00391 -7.44141 v -16.0039 h 7.44141 24.00391 24.0039 24.00391 24.00391 v -42.7988 h 24.0039 v -45.3125 -42.8008 z m 88.57422,0 h 7.44141 24.0039 24.00391 v 15.1621 h -24.00391 -24.0039 -7.44141 z m 103.45703,0 h 7.43945 v 17.6758 16.002 h -7.43945 -16.5625 v 24.2851 h -7.44141 v -40.2871 h 24.00391 z m 480.07617,0 h 7.4414 v 15.1621 h -7.4414 z m 184.5879,0 h 7.4414 24.0039 24.0039 v 15.1621 h -24.0039 -24.0039 -7.4414 z m 103.457,0 h 7.4414 v 17.6758 42.7988 42.8008 42.7988 16.0039 h -7.4414 -24.0039 -7.4414 v -16.0039 h 7.4414 24.0039 v -45.3125 -42.7988 -42.8008 z m -336.05271,17.6758 h 24.00391 v 16.002 h -16.5625 v 26.7968 42.8008 42.7988 16.0039 h -7.44141 -24.00391 -7.4414 v -16.0039 h 7.4414 24.00391 v -45.3125 -42.7988 z m -168.02734,18.8731 h 13.6914 v 21.414 h -3.3789 v -18.0351 h -10.3125 z m 178.33985,0 h 13.6914 v 3.3789 h -10.3125 v 18.0351 42.7988 42.8008 24.7656 h -13.69141 -24.00391 -13.6914 v -22.2539 h 3.3789 v 18.875 h 10.3125 24.00391 10.31251 v -21.3867 -42.8008 -42.7988 z m 61.6992,0 h 13.6914 v 21.414 h -3.3789 v -18.0351 h -10.3125 z m -240.03905,6.25 h 7.4414 v 15.164 h -7.4414 z m 240.03905,0 h 7.4414 v 15.164 h -7.4414 z m -624.0996,17.6757 h 24.00391 24.0039 24.00391 v 16.0039 h -24.00391 -24.0039 -16.5625 v 26.7969 42.7988 16.0039 h -7.44141 -24.00391 -7.4414 v -16.0039 h 7.4414 24.00391 v -45.3125 z m 346.36523,0 h 3.37891 v 18.875 h 10.3125 v 3.3789 h -13.69141 z m 6.25,0 h 7.44141 v 16.0039 h -7.44141 z m 233.78907,0 h 3.3789 v 18.875 h 10.3125 v 3.3789 h -13.6914 z m 6.25,0 h 7.4414 v 16.0039 h -7.4414 z m 175.4668,0 h 24.0039 24.0039 24.0039 v 16.0039 h -24.0039 -24.0039 -16.5625 v 26.7969 42.7988 16.0039 h -7.4414 -24.0039 -7.4395 v -16.0039 h 7.4395 24.0039 v -45.3125 z m -757.8086,18.875 h 13.69141 24.0039 24.00391 v 3.3789 h -24.00391 -24.0039 -10.3125 v 18.0332 42.8008 24.7656 H 442.625 418.62109 404.92969 v -22.2539 h 3.3789 v 18.875 h 10.3125 24.00391 10.3125 v -21.3867 -42.8008 z m 109.70703,0 h 13.68945 v 21.4121 42.8008 24.7656 h -13.68945 -24.00391 -13.6914 v -22.2539 h 3.3789 v 18.875 h 10.3125 24.00391 10.31055 v -21.3867 -42.8008 -18.0332 h -10.31055 z m 288.04492,0 h 13.69141 v 21.4121 24.7657 h -13.69141 -10.3125 v 18.0351 2.5117 22.2539 h -13.6914 -24.00391 -24.00391 -24.0039 -24.00391 -24.0039 -13.69141 v -22.2539 h 3.37891 v 18.875 h 10.3125 24.0039 24.00391 24.0039 24.00391 24.00391 10.3125 v -18.875 -2.5117 -21.414 h 13.6914 10.3125 v -21.3868 -18.0332 h -10.3125 z m 370.36915,0 h 13.6914 24.0039 24.0039 v 3.3789 h -24.0039 -24.0039 -10.3125 v 18.0332 42.8008 24.7656 h -13.6914 -24.0039 -13.6895 v -22.2539 h 3.3789 v 18.875 h 10.3106 24.0039 10.3125 v -21.3867 -42.8008 z m -658.41407,6.25 h 7.43945 v 17.6758 42.7988 16.0039 h -7.43945 -24.00391 -7.4414 v -16.0039 h 7.4414 24.00391 v -45.3125 z m 288.04492,0 h 7.44141 v 17.6758 16.002 h -7.44141 -16.5625 v 24.2851 2.5117 16.0039 h -7.4414 -24.00391 -24.00391 -24.0039 -24.00391 -24.0039 -7.44141 v -16.0039 h 7.44141 24.0039 24.00391 24.0039 24.00391 24.00391 v -42.7988 h 24.0039 z m -637.79101,17.6758 h 3.3789 v 18.8731 h 10.3125 v 3.3789 h -13.6914 z m 6.25,0 h 7.4414 v 16.002 h -7.4414 z m 449.82226,0 h 3.37891 v 18.8731 h 10.3125 v 3.3789 H 668.9707 Z m 6.25,0 h 7.44141 v 16.002 h -7.44141 z m 377.8125,0 h 3.3789 v 18.8731 h 10.3125 v 3.3789 h -13.6914 z m 6.25,0 h 7.4414 v 16.002 h -7.4414 z m 463.5137,18.8731 h 13.6914 v 21.414 2.5117 22.2539 h -13.6914 -24.0039 -24.0039 -24.0039 -24.004 -24.0039 -24.0039 -13.6914 v -22.2539 h 3.3789 v 18.875 h 10.3125 24.0039 24.0039 24.004 24.0039 24.0039 24.0039 10.3125 v -18.875 -2.5117 -18.0351 h -10.3125 z m 0,6.25 h 7.4414 v 15.164 2.5117 16.0039 h -7.4414 -24.0039 -24.0039 -24.0039 -24.004 -24.0039 -24.0039 -7.4414 v -16.0039 h 7.4414 24.0039 24.0039 24.004 24.0039 24.0039 24.0039 z"
         transform="matrix(0.26458333,0,0,0.26458333,-96.379791,58.719553)" />
    </g>
  </g>
</svg>
